<mxfile host="app.diagrams.net" modified="2024-05-23T09:57:46.107Z" agent="Mozilla/5.0 (Windows NT 10.0; Win64; x64) AppleWebKit/537.36 (KHTML, like Gecko) Chrome/123.0.0.0 Safari/537.36" etag="oJqGbDpMGxAGUQbjh7IV" version="24.3.1" type="github">
  <diagram name="Trang-1" id="OtAyOf43-vm7uzbXgGZZ">
    <mxGraphModel dx="1006" dy="567" grid="0" gridSize="10" guides="1" tooltips="1" connect="1" arrows="1" fold="1" page="1" pageScale="1" pageWidth="827" pageHeight="1169" math="0" shadow="0">
      <root>
        <mxCell id="0" />
        <mxCell id="1" parent="0" />
        <mxCell id="kjTO7QuRwkwtUS2SJVDn-1" value="" style="rounded=1;whiteSpace=wrap;html=1;" vertex="1" parent="1">
          <mxGeometry x="195" y="162" width="413" height="304" as="geometry" />
        </mxCell>
        <mxCell id="kjTO7QuRwkwtUS2SJVDn-27" value="" style="edgeStyle=orthogonalEdgeStyle;rounded=0;orthogonalLoop=1;jettySize=auto;html=1;" edge="1" parent="1" source="kjTO7QuRwkwtUS2SJVDn-2" target="kjTO7QuRwkwtUS2SJVDn-22">
          <mxGeometry relative="1" as="geometry" />
        </mxCell>
        <mxCell id="kjTO7QuRwkwtUS2SJVDn-2" value="&lt;font style=&quot;font-size: 14px;&quot;&gt;Goal&lt;/font&gt;" style="ellipse;whiteSpace=wrap;html=1;" vertex="1" parent="1">
          <mxGeometry x="255.5" y="96" width="77" height="45" as="geometry" />
        </mxCell>
        <mxCell id="kjTO7QuRwkwtUS2SJVDn-3" value="&lt;font size=&quot;1&quot; style=&quot;&quot; face=&quot;Times New Roman&quot;&gt;&lt;b style=&quot;font-size: 16px;&quot;&gt;move base&lt;/b&gt;&lt;/font&gt;" style="text;html=1;align=center;verticalAlign=middle;whiteSpace=wrap;rounded=0;" vertex="1" parent="1">
          <mxGeometry x="362" y="152" width="104" height="52" as="geometry" />
        </mxCell>
        <mxCell id="kjTO7QuRwkwtUS2SJVDn-8" value="" style="edgeStyle=orthogonalEdgeStyle;rounded=0;orthogonalLoop=1;jettySize=auto;html=1;entryX=1;entryY=0.5;entryDx=0;entryDy=0;" edge="1" parent="1" source="kjTO7QuRwkwtUS2SJVDn-4" target="kjTO7QuRwkwtUS2SJVDn-10">
          <mxGeometry relative="1" as="geometry">
            <mxPoint x="607" y="222" as="targetPoint" />
          </mxGeometry>
        </mxCell>
        <mxCell id="kjTO7QuRwkwtUS2SJVDn-4" value="Map server" style="rounded=0;whiteSpace=wrap;html=1;" vertex="1" parent="1">
          <mxGeometry x="686" y="211" width="111" height="43" as="geometry" />
        </mxCell>
        <mxCell id="kjTO7QuRwkwtUS2SJVDn-9" value="/map" style="text;html=1;align=center;verticalAlign=middle;whiteSpace=wrap;rounded=0;" vertex="1" parent="1">
          <mxGeometry x="615" y="204" width="60" height="30" as="geometry" />
        </mxCell>
        <mxCell id="kjTO7QuRwkwtUS2SJVDn-25" value="" style="edgeStyle=orthogonalEdgeStyle;rounded=0;orthogonalLoop=1;jettySize=auto;html=1;" edge="1" parent="1" source="kjTO7QuRwkwtUS2SJVDn-10" target="kjTO7QuRwkwtUS2SJVDn-22">
          <mxGeometry relative="1" as="geometry" />
        </mxCell>
        <mxCell id="kjTO7QuRwkwtUS2SJVDn-10" value="Global_costmap" style="ellipse;whiteSpace=wrap;html=1;" vertex="1" parent="1">
          <mxGeometry x="459" y="204" width="120" height="57" as="geometry" />
        </mxCell>
        <mxCell id="kjTO7QuRwkwtUS2SJVDn-24" value="" style="edgeStyle=orthogonalEdgeStyle;rounded=0;orthogonalLoop=1;jettySize=auto;html=1;" edge="1" parent="1" source="kjTO7QuRwkwtUS2SJVDn-11" target="kjTO7QuRwkwtUS2SJVDn-23">
          <mxGeometry relative="1" as="geometry" />
        </mxCell>
        <mxCell id="kjTO7QuRwkwtUS2SJVDn-11" value="Local_costmap" style="ellipse;whiteSpace=wrap;html=1;" vertex="1" parent="1">
          <mxGeometry x="459" y="355" width="120" height="57" as="geometry" />
        </mxCell>
        <mxCell id="kjTO7QuRwkwtUS2SJVDn-12" value="Lidar" style="rounded=0;whiteSpace=wrap;html=1;" vertex="1" parent="1">
          <mxGeometry x="686" y="288" width="111" height="43" as="geometry" />
        </mxCell>
        <mxCell id="kjTO7QuRwkwtUS2SJVDn-14" value="" style="endArrow=classic;startArrow=classic;html=1;rounded=0;entryX=0.5;entryY=1;entryDx=0;entryDy=0;exitX=0.5;exitY=0;exitDx=0;exitDy=0;" edge="1" parent="1" source="kjTO7QuRwkwtUS2SJVDn-11" target="kjTO7QuRwkwtUS2SJVDn-10">
          <mxGeometry width="50" height="50" relative="1" as="geometry">
            <mxPoint x="469" y="334" as="sourcePoint" />
            <mxPoint x="519" y="284" as="targetPoint" />
          </mxGeometry>
        </mxCell>
        <mxCell id="kjTO7QuRwkwtUS2SJVDn-15" value="" style="endArrow=none;html=1;rounded=0;entryX=0;entryY=0.5;entryDx=0;entryDy=0;" edge="1" parent="1" target="kjTO7QuRwkwtUS2SJVDn-12">
          <mxGeometry width="50" height="50" relative="1" as="geometry">
            <mxPoint x="520" y="310" as="sourcePoint" />
            <mxPoint x="436" y="267" as="targetPoint" />
          </mxGeometry>
        </mxCell>
        <mxCell id="kjTO7QuRwkwtUS2SJVDn-16" value="/LaserScan" style="text;html=1;align=center;verticalAlign=middle;whiteSpace=wrap;rounded=0;" vertex="1" parent="1">
          <mxGeometry x="509" y="281" width="106" height="30" as="geometry" />
        </mxCell>
        <mxCell id="kjTO7QuRwkwtUS2SJVDn-19" value="Recovery &lt;br&gt;behaviors" style="ellipse;whiteSpace=wrap;html=1;" vertex="1" parent="1">
          <mxGeometry x="354" y="281" width="120" height="57" as="geometry" />
        </mxCell>
        <mxCell id="kjTO7QuRwkwtUS2SJVDn-20" value="" style="endArrow=classic;html=1;rounded=0;entryX=0.447;entryY=-0.025;entryDx=0;entryDy=0;entryPerimeter=0;exitX=0;exitY=0.5;exitDx=0;exitDy=0;" edge="1" parent="1" source="kjTO7QuRwkwtUS2SJVDn-10" target="kjTO7QuRwkwtUS2SJVDn-19">
          <mxGeometry width="50" height="50" relative="1" as="geometry">
            <mxPoint x="386" y="317" as="sourcePoint" />
            <mxPoint x="436" y="267" as="targetPoint" />
          </mxGeometry>
        </mxCell>
        <mxCell id="kjTO7QuRwkwtUS2SJVDn-21" value="" style="endArrow=classic;html=1;rounded=0;exitX=0;exitY=0.5;exitDx=0;exitDy=0;entryX=0.5;entryY=1;entryDx=0;entryDy=0;" edge="1" parent="1" source="kjTO7QuRwkwtUS2SJVDn-11" target="kjTO7QuRwkwtUS2SJVDn-19">
          <mxGeometry width="50" height="50" relative="1" as="geometry">
            <mxPoint x="386" y="317" as="sourcePoint" />
            <mxPoint x="436" y="267" as="targetPoint" />
          </mxGeometry>
        </mxCell>
        <mxCell id="kjTO7QuRwkwtUS2SJVDn-26" value="" style="edgeStyle=orthogonalEdgeStyle;rounded=0;orthogonalLoop=1;jettySize=auto;html=1;" edge="1" parent="1" source="kjTO7QuRwkwtUS2SJVDn-22" target="kjTO7QuRwkwtUS2SJVDn-23">
          <mxGeometry relative="1" as="geometry" />
        </mxCell>
        <mxCell id="kjTO7QuRwkwtUS2SJVDn-22" value="Global_planner" style="ellipse;whiteSpace=wrap;html=1;" vertex="1" parent="1">
          <mxGeometry x="234" y="204" width="120" height="57" as="geometry" />
        </mxCell>
        <mxCell id="kjTO7QuRwkwtUS2SJVDn-30" value="" style="edgeStyle=orthogonalEdgeStyle;rounded=0;orthogonalLoop=1;jettySize=auto;html=1;" edge="1" parent="1" source="kjTO7QuRwkwtUS2SJVDn-23" target="kjTO7QuRwkwtUS2SJVDn-29">
          <mxGeometry relative="1" as="geometry" />
        </mxCell>
        <mxCell id="kjTO7QuRwkwtUS2SJVDn-23" value="Local_planner" style="ellipse;whiteSpace=wrap;html=1;" vertex="1" parent="1">
          <mxGeometry x="234" y="355" width="120" height="57" as="geometry" />
        </mxCell>
        <mxCell id="kjTO7QuRwkwtUS2SJVDn-29" value="Base controller" style="rounded=0;whiteSpace=wrap;html=1;" vertex="1" parent="1">
          <mxGeometry x="238.5" y="485" width="111" height="43" as="geometry" />
        </mxCell>
        <mxCell id="kjTO7QuRwkwtUS2SJVDn-31" value="AMCL" style="rounded=0;whiteSpace=wrap;html=1;" vertex="1" parent="1">
          <mxGeometry x="8" y="211" width="111" height="43" as="geometry" />
        </mxCell>
        <mxCell id="kjTO7QuRwkwtUS2SJVDn-35" value="" style="edgeStyle=orthogonalEdgeStyle;rounded=0;orthogonalLoop=1;jettySize=auto;html=1;" edge="1" parent="1" source="kjTO7QuRwkwtUS2SJVDn-32" target="kjTO7QuRwkwtUS2SJVDn-1">
          <mxGeometry relative="1" as="geometry" />
        </mxCell>
        <mxCell id="kjTO7QuRwkwtUS2SJVDn-32" value="sensors&amp;nbsp;&lt;br&gt;transforms" style="rounded=0;whiteSpace=wrap;html=1;" vertex="1" parent="1">
          <mxGeometry x="12" y="286.75" width="103" height="54.5" as="geometry" />
        </mxCell>
        <mxCell id="kjTO7QuRwkwtUS2SJVDn-36" value="" style="edgeStyle=orthogonalEdgeStyle;rounded=0;orthogonalLoop=1;jettySize=auto;html=1;" edge="1" parent="1" source="kjTO7QuRwkwtUS2SJVDn-33" target="kjTO7QuRwkwtUS2SJVDn-23">
          <mxGeometry relative="1" as="geometry" />
        </mxCell>
        <mxCell id="kjTO7QuRwkwtUS2SJVDn-33" value="Odometry" style="rounded=0;whiteSpace=wrap;html=1;" vertex="1" parent="1">
          <mxGeometry x="8" y="362" width="111" height="43" as="geometry" />
        </mxCell>
        <mxCell id="kjTO7QuRwkwtUS2SJVDn-37" value="" style="endArrow=none;html=1;rounded=0;" edge="1" parent="1">
          <mxGeometry width="50" height="50" relative="1" as="geometry">
            <mxPoint x="120" y="384" as="sourcePoint" />
            <mxPoint x="120" y="233" as="targetPoint" />
            <Array as="points">
              <mxPoint x="147" y="384" />
              <mxPoint x="147" y="233" />
            </Array>
          </mxGeometry>
        </mxCell>
        <mxCell id="kjTO7QuRwkwtUS2SJVDn-38" value="/tf" style="text;html=1;align=center;verticalAlign=middle;whiteSpace=wrap;rounded=0;" vertex="1" parent="1">
          <mxGeometry x="140" y="284" width="60" height="30" as="geometry" />
        </mxCell>
        <mxCell id="kjTO7QuRwkwtUS2SJVDn-39" value="" style="shape=waypoint;sketch=0;fillStyle=solid;size=6;pointerEvents=1;points=[];fillColor=none;resizable=0;rotatable=0;perimeter=centerPerimeter;snapToPoint=1;" vertex="1" parent="1">
          <mxGeometry x="137" y="304" width="20" height="20" as="geometry" />
        </mxCell>
        <mxCell id="kjTO7QuRwkwtUS2SJVDn-40" value="" style="shape=waypoint;sketch=0;fillStyle=solid;size=6;pointerEvents=1;points=[];fillColor=none;resizable=0;rotatable=0;perimeter=centerPerimeter;snapToPoint=1;" vertex="1" parent="1">
          <mxGeometry x="137" y="373.5" width="20" height="20" as="geometry" />
        </mxCell>
        <mxCell id="kjTO7QuRwkwtUS2SJVDn-41" value="/cmd_vel" style="text;html=1;align=center;verticalAlign=middle;whiteSpace=wrap;rounded=0;" vertex="1" parent="1">
          <mxGeometry x="294" y="422" width="60" height="30" as="geometry" />
        </mxCell>
        <mxCell id="kjTO7QuRwkwtUS2SJVDn-42" value="/odom" style="text;html=1;align=center;verticalAlign=middle;whiteSpace=wrap;rounded=0;" vertex="1" parent="1">
          <mxGeometry x="140" y="353" width="60" height="30" as="geometry" />
        </mxCell>
        <mxCell id="kjTO7QuRwkwtUS2SJVDn-43" value="/goal" style="text;html=1;align=center;verticalAlign=middle;whiteSpace=wrap;rounded=0;" vertex="1" parent="1">
          <mxGeometry x="294" y="162" width="60" height="30" as="geometry" />
        </mxCell>
      </root>
    </mxGraphModel>
  </diagram>
</mxfile>
